<svg xmlns="http://www.w3.org/2000/svg" viewBox="0 0 625.9 318.6"><path d="M0 94.2C.4 81 16 71.8 47.1 53.6c29.8-17.5 53.1-28.4 77.4-25 15.8 2.2 17 7.8 54.1 17 18.8 4.6 26.6 5.2 33.3 5 21.5-.7 36.3-9.8 43.1-13 41.7-19.9 123 9.7 152.3 59.5 20.2 34.1 6.6 62.2 31.2 77.5 12 7.4 16.4 1.5 58 10.5 37.9 8.1 47.2 15.8 52.5 22 1.4 1.6 17.7 20.8 11.5 36-8.8 21.5-54.9 13.5-57.5 26.5-2 9.8 21.9 27.1 48.3 31.3 41 6.4 73.8-20.9 74.6-19.3 1 1.8-42 47-90.4 35-28.8-7.2-58.4-34-55-54.7 1.4-8 7.3-13.7 8.5-14.8 15.6-15.1 41.4-6.2 45-15.7 2-4.8-3.2-11-4-11.8-5.2-6.2-18.9-6.7-46-7.5-25.1-.8-25.2-.9-26.5-1-13-.9-19-2-25.8-1.6a59.5 59.5 0 0 0-10.5 1.8c-7 1.7-10.6 3.4-35.4 15-8.4 4-12.6 5.9-18.4 9.3-4.7 2.7-44.1 11-45.6 11.5-8.1 2-17.4 6.4-20.3 7.7-4.5 2.1-8.8 5.2-10 4s1-5.6 1.4-6.3c2.1-4 5-5.7 4.7-6.2s-3.7 1.3-9 3.3-9.3 3.7-10 2.7c-.4-.5-.5-2 5.2-8 2.8-1.9 4.9-3.6 4.6-4.1-.8-1.6-19.4 7.5-20.9 4.9-.8-1.4 3.5-6 7.1-9s6-3.2 6-4.5c0-1.6-3.5-2.7-12.3-5.2-21.4-6-19.5-4.6-23-6a25.2 25.2 0 0 0-9.5-2 9.3 9.3 0 0 0-1.2 0c-5.7 1-4.9 12.3-12 22.4-9.6 13.6-28.6 17.3-30 15-1.2-2 10-10.7 9-12-.5-.7-4.2 1.6-12.3 4.7-8.5 3.2-9.3 2.4-9.5 2.2-.8-1.1 1.8-4.2 3.5-6.2 3.2-3.9 5.8-5.4 5.5-6s-4.1.9-10.5 2.9c-7.2 2.2-10.8 3.3-11.2 2.5-.8-1.3 6-8.4 15.2-11.9 5.9-2.2 8.6-1.3 12.1-4.6 1.6-1.4 3-4.4 6-10.3 3.6-7.2 3.6-8.2 3.4-8.8-.7-4-5.2-6.1-11.6-9.2a54 54 0 0 0-9.8-3.5c-4.6-1.2-7-1.8-8.5-1.5-7 1.4-5.3 15.4-15.4 31.3a36.5 36.5 0 0 1-18.3 16.1c-5.5 2-12.2 2.3-13 .4-1-2.6 9.3-8.6 8.5-9.9-1-1.8-20.6 8.7-22.5 5.9-1.5-2.2 8.4-11 7.4-12.1-.6-.7-4.3 2.3-11.5 5.3-4.3 1.8-6.8 3-7.4 2.1-1.2-1.4 4.2-8.8 11.1-13.5a34.2 34.2 0 0 1 12.1-5.2c4.3-1 4.6 0 6.4-1 2.9-1.5 4-4.5 7.4-20.4 1.6-8 1.8-9.2 2.9-13.6 2-8.2 2.9-8.5 3-10.7.5-10.2-13.8-18.9-19.5-22.3-16.3-9.9-33-10.9-42.2-11.5-18.8-1.2-23.1 1.6-30.5 1.6a55 55 0 0 1-6.7-.6C36.6 134.6-.7 117 0 94.2z" fill="#75706c"/><path d="M340 107.9a50.9 50.9 0 0 0-18.3 0c-25.9 4.8-38.6 29-40.4 32.3a65 65 0 0 0 5 67 64.3 64.3 0 0 0 52 26.4 62.6 62.6 0 0 0 26-6M250.7 134.6a28.1 28.1 0 0 1 9.3 8c8.6 11.5 4.6 26 4 28.3a47.4 47.4 0 0 1-15.7 23c-3.3 2.7-6.4 4.3-9.6 8.7a32.4 32.4 0 0 0-5.7 13.3M120.3 124.5a78 78 0 0 0 5.8-3.5c2.6-1.7 9.4-6.3 14-12 6.3-8 7.7-17.4 8-23.3" fill="none" stroke="#585553" stroke-miterlimit="10" stroke-width="3"/><path d="M3.8 83.2c3.8-2 10.8 1.5 12.5 6a3.6 3.6 0 0 1 .3.9c.2 1.4-.5 3.3-2.8 9.1-4.3 11-5 12.3-6.2 12.4-2.6.3-5.4-5.5-6.4-8.6a24.2 24.2 0 0 1-.7-12.4c.8-3.9 1.2-6.3 3.3-7.4z" fill="#c68d6d"/><circle cx="86.8" cy="70.9" r="8.7" fill="#3d3b3b"/><circle cx="82.6" cy="70" r="2.5" fill="#fff"/><path d="M18.5 119.7a42.6 42.6 0 0 0 9-.3 30.8 30.8 0 0 0 11.7-3.5c2.7-1.6 5.2-3.7 9.3-7.3 2.6-2.3 3.9-3.6 5.8-3.5 2.5 0 4.3 2.3 5.2 3.6" fill="none" stroke="#585553" stroke-miterlimit="10" stroke-width="2"/><path d="M128 49.9a32 32 0 0 1-.2-15 27.4 27.4 0 0 1 5.4-10.5A27 27 0 0 1 151 15c2.5-.2 9.4-.8 15.2 3.5 9.3 6.8 8.3 20.5 8.1 22.5-.4 5.8-2 5.6-14.3 28.2-4.3 8.1-5.8 11.2-9 11.8-5.9 1-11.9-7.3-15-11.5a46.5 46.5 0 0 1-8-19.7z" fill="#bca68b"/><path d="M97.7 28.9C94.3 25 100.1 15 101.2 13c1.8-3.2 5-8.7 12-11.5A21.1 21.1 0 0 1 124.4.2a20.7 20.7 0 0 1 11.3 5.9c3 3 7 9 5.1 12-1 1.7-3.2 1.5-6.3 4.8l-1.6 1.9c-1.8 2.3-2.3 3.5-2.8 4.2-2 2.4-7.7.3-13.1-.5-11.6-1.6-16.5 3.5-19.3.4z" fill="#c2ad8f"/><path d="M146.7 67.4c-3.2-.5-4.7-6.6-6.2-13-2.2-9.3-3.6-15-.2-19.8a14 14 0 0 1 14-5.6 13.2 13.2 0 0 1 9.2 8.3c2.2 6.2-1.7 12-7.5 20.8-3.7 5.6-6.4 9.7-9.3 9.3z" fill="#b29d84"/><path d="M135.7 141.6c4.2 3.6 10.3 9 17.2 16 9.9 10.2 12.5 14.6 17.5 19.2 6.7 6.2 18 13 38.3 14.5" fill="none" stroke="#585553" stroke-miterlimit="10" stroke-width="3"/></svg>