<svg xmlns="http://www.w3.org/2000/svg" viewBox="0 0 626.6 315.2"><path d="M311 221.9c-3.8 7.3-18.4 1.4-41.8 6-18.3 3.5-31.2 11.3-32.3 9.1s10.4-9.7 9.4-11.3c-1.3-2.1-22 9-23.3 7-1.1-1.9 12.3-11.4 11-13.3-1.3-2.2-19.7 8.1-21.3 5.7-1-1.5 4.3-8 11.2-12.4l2.6-1.4c25.5 5.3 56.3 9 84.5 3.5a9.3 9.3 0 0 1 0 7z" fill="#b79172"/><path d="M176 174c.7 2.5.7 4.7-5.2 21.4-8.2 23.5-10.5 26.2-13.7 27.7-7 3.2-14.7-1.2-15.3-1.6a16 16 0 0 1-7.4-8.6c-.7-2.1-1-4.5.7-13.3a121 121 0 0 1 3.6-15.5c4-13.1 6-19.6 9.4-22 8.4-5.5 24.8 1 28 11.9z" fill="#6b6764"/><path d="M423.6 171.3c5.6-3 10.4-1 25.7 1.8 17 3.1 20.4 2.2 30.9 4 19.8 3.4 78.2 18.5 82.3 47.3 1 7.5-1.4 17-7.5 22.3s-11.6 3-26.2 6.5c-10.4 2.4-25.1 5.8-26.3 12-1.7 8.6 21.7 25.1 47.6 29.1 41.4 6.4 73.8-21.7 76.4-17.6 2.2 3.5-19 29.4-51.4 36.5-34.4 7.6-75.5-7.2-89.3-35.3-2.4-4.8-8.8-17.6-3.4-26.9 9.2-16 45.6-7.1 51-22 1.8-5-.9-10-1.3-10.8-5.8-10.8-24.2-9.8-71.4-10.8-34.6-.7-43.4-1.6-47-8-4.7-8.3.7-23.3 9.9-28.1z" fill="#c2ad8f"/><path d="M96 66.8c.5 5.9-5.7 10.5-10.5 10.6-2.8 0-5-1.5-9.3-4.7-2.7-2-4.3-3.2-4.3-5 0-2 2.2-3.5 5-5.4 3.8-2.7 5.8-4 8.6-4 4.3 0 10 3.3 10.4 8.5z" fill="#afaeae" opacity=".3"/><path d="M146 77.8l-16.8-29.4" fill="#afaeae"/><path d="M118.2 67.9c2.5-.3 3.8-2.8 10.4-16.2C138.9 30.7 140 28 140 23.3c0-1.8 0-13.2-7.2-19.5-7.7-6.8-19.3-3.7-26 3-5.5 5.6-7 13-7.5 15.4-2.1 11.2 2 20.2 5.9 28.8 3.4 7.6 7.8 17.3 13 16.9z" fill="#c2ad8f"/><path d="M.2 91.6C.8 85.7 6.2 81 16.9 72c8.2-6.8 16.8-12.8 32.2-21.4C66.5 41 75.2 36 85 32.8a133.5 133.5 0 0 1 42.7-7c37.1.3 45.7 18.3 77.9 21.3 27 2.5 29.3-9.6 60.5-13.4 64-7.9 129.7 33.1 149 71a250 250 0 0 1 13.6 36.5c5.1 17.3 7.6 26.1 6.2 35.7-3 19.8-19.9 32.4-26.8 37.5-49 36.4-128 13.7-162.8 4-25.8-7.3-52-14.7-79.4-35.7-28.3-21.9-26.4-33.6-49.7-43.7C84 125 67 142 31.8 124.7c-3.9-2-33.4-17-31.6-33.1z" fill="#75706c"/><path d="M231.4 134.1c8-4.6 19.6-4 27 1.7 12.6 10 7.6 31.8 3.5 41.2a37.5 37.5 0 0 1-5.4 9.1c-5.7 7-10.6 7.4-15.2 13.6a27 27 0 0 0-4.8 11.7v.1l-.5 1c-.4.7-3 12.6-7.2 19.1-1.7 2.7-2.8 4.4-5 5.3-5.3 2.3-12-2-16.6-5-4.6-3-6.9-4.4-8-6.6-3-5.8 2.3-11.1 8.4-27a161.8 161.8 0 0 0 8.5-30.7c1.2-6.7.8-7.5 2-11.8 2.1-7.2 4.9-16.8 13.3-21.7z" fill="#6b6764"/><path d="M340.4 103.6a85.7 85.7 0 0 0-32.1 17c-20.5 17.5-33 45.8-25.4 72.2 2.2 7.8 8.6 30 32.1 37.5 23.9 7.7 46.5-5.7 49.1-7.4" fill="none" stroke="#3d3b3b" stroke-miterlimit="10" stroke-width="2" opacity=".5"/><path d="M112 218.8c-7.2 4.3-12.3 10.2-10.8 11.2 2.4 1.4 19.9-9 22-7.7 2 1.3-11.1 11-9 12.5 2.5 1.6 21-8.5 23.3-7 2 1.4-9.8 9-7.8 10.5 2.5 1.9 29.2-3.4 27.6-13.5-1-6.5-13.1-12.2-23.6-12.8a35.8 35.8 0 0 0-21.7 6.8zM367 238.4c-3.8 7.3-18.3 1.5-41.8 6-18.3 3.6-31.1 11.3-32.3 9.1s10.4-9.7 9.4-11.3c-1.3-2.1-21.9 9.1-23.3 7-1-1.9 12.3-11.3 11.1-13.3-1.4-2.2-19.7 8.2-21.3 5.7-1-1.5 4.3-8 11.2-12.3.8-.6 1.7-1 2.5-1.5 25.5 5.4 56.3 9.1 84.5 3.5a9.3 9.3 0 0 1 0 7.1z" fill="#bf9975"/><path d="M72.4 71c-.2-2.4 2.5-4.5 6.2-7.3 4.4-3.4 8.8-6.8 13.4-5.6 4.5 1.1 6 5.6 6 6a9.5 9.5 0 0 1-2.3 9c-3.6 4-9.3 3.8-11.5 3.8-4.7-.2-11.5-2.2-11.8-5.9z" fill="#c68d6d"/><path d="M115.3 137a44.8 44.8 0 0 0 17.8-14.5 35.7 35.7 0 0 0 6.8-15.8 33.4 33.4 0 0 0 .4-7.1" fill="none" stroke="#3d3b3b" stroke-miterlimit="10" stroke-width="2" opacity=".5"/><path d="M150 77.8c3-.2 4.4-2.7 12-15.7 11.8-20.4 13-23 13-27.5 0-1.8 0-12.9-8.2-19-8.8-6.6-22.1-3.6-29.8 3a27 27 0 0 0-8.6 14.9c-2.4 10.8 2.3 19.6 6.7 28 4 7.2 9 16.7 15 16.3z" fill="#c2ad8f"/><path d="M137.5 50a23.8 23.8 0 0 1 0-19c2.2-4.4 8-12.4 15.7-11.5 4.8.6 8 4.3 9 5.8" fill="none" stroke="#b39481" stroke-miterlimit="10" stroke-width="2"/><path d="M144.6 32.6c1.1-.8 11.5 7 12.3 18.3.5 7.6-3.4 17-8.2 17.3-3.6.3-8.2-4.7-7.8-8.7s5.7-4.1 7.9-9c3.5-7.5-5.3-17.2-4.2-18z" fill="#bf9975"/><path d="M158.4 50.5a16 16 0 0 0 6.8-21.5" fill="none" stroke="#927250" stroke-miterlimit="10" stroke-width="2"/><path d="M66.5 101.3A37.6 37.6 0 0 1 51.8 131a79.7 79.7 0 0 1-20-7C27.7 122.2-1.7 107.2 0 91c.6-5.8 6-10.5 16.7-19.6 3.2-2.6 6.4-5.2 10.1-7.8h1.9a37.7 37.7 0 0 1 37.7 37.7z" fill="#9a9897" opacity=".8"/><path d="M6.8 82a10 10 0 0 1 4.3.4c1.6.4 3.5 1 4.7 2.6a4.8 4.8 0 0 1 .9 2.1c.4 2.3-1 5.7-3.7 12.3-2.8 7-2.9 8-4.1 8.3-3.2.7-9-6.6-8.9-14 .1-5 2.8-10.9 6.8-11.7z" fill="#c68d6d"/><path d="M23.2 118.2c13.4.4 20.7-3.4 24.8-7 3.8-3.1 7.3-8.2 11.5-7.5 2.4.4 4 2.5 5 4.1" fill="none" stroke="#75706c" stroke-miterlimit="10"/><circle cx="88.2" cy="67.4" r="8.5" fill="#3d3b3b"/><circle cx="83.4" cy="66.5" r="2.5" fill="#fcedf1"/><path d="M133.9 144.2c2 3.3 5.1 7.8 9 13 4.9 6.2 9.4 12 14.9 16.6a55.5 55.5 0 0 0 28.9 12" fill="none" stroke="#3d3b3b" stroke-miterlimit="10" stroke-width="2" opacity=".3"/><path d="M179 230.8c-7.3 4.3-12.4 10.2-10.8 11.1 2.3 1.5 19.8-9 22-7.6 2 1.3-11.1 11-9 12.5 2.5 1.6 21-8.5 23.3-7 2 1.4-9.8 9-7.8 10.5 2.4 1.9 29.2-3.4 27.6-13.5-1-6.5-13.2-12.2-23.6-12.8-9.7-.5-16.3 3.5-21.8 6.8z" fill="#bf9975"/><path d="M235.2 213.2a37.3 37.3 0 0 1 2.1-7 38.1 38.1 0 0 1 6-10c4.8-5.7 7-4.9 12-10a38.1 38.1 0 0 0 7.5-11.4 39.4 39.4 0 0 0 2.8-19.3 43.5 43.5 0 0 0-4.2-15" fill="none" stroke="#3d3b3b" stroke-miterlimit="10" stroke-width="2" opacity=".5"/></svg>