<svg xmlns="http://www.w3.org/2000/svg" viewBox="0 0 533 1462"><path class="_skin" d="M219 41a75 75 0 0 0-11 52c1 3-6 19-9 22-11 9 0 42 7 42l4-2c2 1 5 35 5 40-2 34-64 17-113 62-27 23-36 50-37 55-7 19-5 32-6 50-3 40-18 58-29 96-6 21-26 142-25 192 0 45-6 83-5 92 2 12 3 21 8 31 12 22 35 36 40 32 8-6-24-48-10-71 1-1 15-4 18 1 6 11 16 22 19 21s-1-23-10-43c-10-24-18-25-21-37-8-25 19-38 39-86 9-22 8-31 13-55l12-44c15-51 22-76 28-76 8 0 13 47 15 83 5 103-17 142-18 265-2 110 15 131 16 251 1 39-10 40-10 74 0 7 17 101 17 101 7 29 29 105-1 132-19 17-44 4-72 31-3 3-18 17-15 24 4 7 22 2 56-2 5-1 83-9 92-19 2-2 0-66 0-92 0-7 27-146 26-160-4-48-2-46 2-120 0-15 1-27 9-101 12-129 14-141 17-141 6 0-2 96 23 230 1 6 8 31 11 65 2 12 2 82 4 114 0 10 0 9 4 39a515 515 0 0 1 3 167c0 11 17 49 25 66 11 25 17 38 27 40 14 3 36-16 41-37 6-30-26-39-38-84-13-44 6-91 15-134 7-37 11-47 12-72 0-30-6-42-7-76-1-12 0-23 5-78 7-87 14-105 16-163v-61c-3-72-15-90-19-172-2-24-3-72-3-85 0-46 0-81 7-82 9-2 27 65 29 74 0 3 14 68 27 97 32 76 33 72 33 82 1 25-36 78-30 83 2 2 15-4 23-10 3-3 20-4 23-2 11 12-23 57-17 61 4 3 39-12 49-45 3-10-6-111-6-124-5-118-3-113-23-171-14-42-29-62-28-101 1-14-10-80-35-96-26-17-123-63-124-66-1-2 2-43 7-45 1-1 2 1 4 1 9-2 14-39 4-44-2-1-9-13-9-21 0-14-1-38-10-51-11-14-83-14-94 1z" fill="#fdc9bc"/><path d="M318 491H214m104 54H214m104 52H214m52-154v155M394 388c-65 30-92 27-104 16s-13-33-21-32c-7 0-8 19-18 30-11 11-38 16-103-11" fill="none" stroke="#deb3ae" stroke-miterlimit="0" stroke-width="10"/><path class="_panties" d="M143 629a1503 1503 0 0 0 258 1 1083 1083 0 0 1 16 181l-146 3-4-33-3 33-143-3a868 868 0 0 1 7-97c4-31 9-59 15-85z" fill="#eee"/><path d="M277 94c-1-2 4-8 14-7 8 0 19 2 19 4 0 1-32 5-33 3zm-22 0c1-1-5-7-14-7-8 1-19 3-19 5 0 1 32 4 33 2z" fill="#332622"/><path class="_hair" d="M210 108c-2 0-13-18-11-40 1-25 16-42 19-45 4-5 21-24 49-23 26 1 42 19 46 23 19 19 18 43 18 52 1 19-5 34-7 34-3 0 3-20-8-37-7-10-21-20-34-18-7 2-9 6-17 6-9 0-11-5-18-6-13-3-29 8-35 20-9 16-1 34-2 34z" fill="#332622"/><path d="M262 99h8l3 29 7 8-5 3h-3l-5 4h-2l-5-4h-3l-4-3 6-8z" fill="#efbcb6"/><path fill="#fff" d="M227 105l9-5 9 1 7 7-9 4h-8l-8-7z"/><circle cx="240" cy="106" r="5" fill="#332622"/><path fill="#fff" d="M305 105l-9-5-9 1-7 7 9 4h8l8-7z"/><circle cx="291" cy="106" r="5" fill="#332622"/><path class="_beard" d="M261 145c-9-8-45 8-45 24-1 15 27 28 50 28s51-13 51-28c-1-17-39-32-47-25-3 3-3 10-4 10s-2-6-5-9zm4 23c-7 0-9 5-15 4-5 0-11-5-10-8 1-6 16-8 26-8 7 0 23 2 24 8 1 3-4 8-8 9-7 2-9-5-17-5z" fill="#332622"/><path d="M248 164l11-4h13l8 5c-4 2-29 1-32-1z" fill="#e6a39f"/></svg>
