<svg xmlns="http://www.w3.org/2000/svg" viewBox="0 0 252 1361"><path d="M252 1349c-1 6-188 15-196-2-2-4 7-620 4-624h154c-8 61-16 121-19 128-14 30-33 38-39 72-4 19 2 21-3 42-6 25-18 35-27 55-6 11-7 18-11 78-6 83-6 99-5 118 3 52 13 65 19 72 8 8 123 58 123 61z" fill="#e5b6ae"/><path fill="#fff" d="M159 90l9-5 9 1 7 7-9 4h-8l-8-7z"/><path d="M58 35c-22 31 0 64 8 135 4 35-23 49-41 90-26 59-13 118-10 130 15 68 56 82 55 134a246 246 0 0 1-4 28c-3 15-50 68-53 92-2 9-4 30 6 53s23 24 29 44c5 16 8 110 0 192-1 15-43 128-47 166-6 49 15 103 27 133 6 16 13 30 12 51-2 13-5 64-3 68 8 16 195 8 196 1 0-2-115-52-123-61-6-6-16-20-19-72-1-19-1-34 5-118 4-59 6-66 11-78 10-20 21-29 27-55 5-20-1-22 3-42 6-33 25-41 39-72 6-13 32-238 39-263 15-52 6-126 6-139 1-27 8-115 6-128-5-25-63-69-76-88-1-2-13-44-3-53s26 1 36-10c8-8 9-23 8-33-1-8-5-14-2-17 4-4 11 1 14-2 3-4-4-12-7-18-4-9-8-24-1-48a66 66 0 0 0-16-24C147 0 80 5 58 35z" fill="#fdc9bc"/><path d="M162 334c4 13 16 21 28 22 15 0 28-10 32-25M207 415l-21 52M179 504a95 95 0 0 1 8 67" fill="none" stroke="#efbdb4" stroke-miterlimit="0" stroke-width="7"/><path d="M171 141l11-4h9l1 6-21-2z" fill="#e6a39f"/><path d="M190 134l-8-10c-2-1-16-7-31-2-10 4-23 14-23 26 0 20 38 38 53 28 6-4 9-14 9-15a37 37 0 0 0 2-15 20 20 0 0 1-14 5c-7 0-15-6-14-9 0-3 6-6 26-8z" fill="#332622"/><path class="_panties" d="M210 632l4 166-171-20c-7-8-43-54-34-118 6-47 33-77 43-87z" fill="#eee"/><path d="M189 80c0-1-5-8-15-7l-19 4c0 1 32 5 34 3z" fill="#332622"/><path d="M163 93c0-3 6-6 11-6 4 1 9 4 9 7s-6 5-10 5-10-4-10-6z" fill="#fff"/><ellipse cx="762" cy="733" rx="5" ry="4" transform="rotate(-87 134 720)" fill="#332622"/><path d="M197 64a54 54 0 0 0-69-9c5 34-1 47-9 53s-15 0-25 8c-6 6-7 11-17 38l-7 17a97 97 0 0 1-29-35c-3-7-14-31-7-62 6-30 29-60 63-70 27-8 68-6 88 22 10 14 12 29 12 38z" fill="#332622"/><path d="M103 85c-2-2-7-5-12-4-8 1-12 12-11 20s7 13 9 15c5 4 15 10 21 6 3-3 3-9 3-14-1-4-1-15-10-23z" fill="#efbdb4"/><path d="M147 283c-1-15-8-36-40-60H74l-37 36-6 63 24 120 12 99 110 172v68l33 36 37-11a184 184 0 0 0-4-67c-12-49-37-55-55-110-15-43-4-50-22-84-17-35-31-35-36-61-6-30 12-38 10-81-2-30-11-30-10-55 2-33 18-42 17-65z" fill="#f4c1b8"/></svg>
