<svg xmlns="http://www.w3.org/2000/svg" viewBox="0 0 670 1354"><path d="M315 269c-7-13-23-29-62-36l-30 14-17 48 21 60 74 97 54 84 174 108 29 61 46 18 28-26a185 185 0 0 0-32-59c-32-39-57-34-98-75-32-32-25-43-56-67-30-23-43-17-59-38-19-25-6-40-26-77-15-26-23-23-33-46-13-31-2-45-13-66z" fill="#e5b5ae"/><path d="M276 615c16 27 38 72 44 133a300 300 0 0 1-3 74 71 71 0 0 1 14 36c2 27-12 46-16 51l-15 129c-9 69-13 93 3 109s35 7 78 32c12 8 33 20 31 29-3 10-35 12-66 11a143 143 0 0 0-33-11c-41-7-65 7-78-5-10-9-5-29-1-52 3-18 2-27 3-43 4-44-11-71-16-101-5-29-2-72 30-128a231 231 0 0 1-21-59c-21-97 29-179 46-205z" fill="#f4c1b8"/><path d="M281 596c30-66 37-87 39-100s2-19 7-31c8-26 16-25 24-47 8-21 4-32 8-44l6-9a157 157 0 0 0 7-18c5-14-8-38-22-61-24-38-29-41-31-56-2-16 1-38 14-44 12-6 24 8 37 1 9-6 15-20 16-30 2-8 0-15 4-17 5-2 10 4 14 2 3-3 0-14-2-19-2-11-2-27 9-51 0-9-2-23-10-35-22-33-80-43-113-18-30 22-32 69-32 72l1 30c1 14 2 19 0 30-6 34-35 40-64 74-42 49-46 109-47 122-5 69 31 94 15 144a240 240 0 0 1-12 25c-5 10-13 14-16 16-16 13-33 35-40 58-8 26-3 49-1 57 6 20 13 23 20 42 9 25 5 47 3 66-11 87 15 104-2 159-16 52-39 37-61 89-34 86 12 164-23 208-14 17-18 28-25 49-4 10-6 18-2 26 5 10 16 11 27 16 33 12 32 34 57 45 30 14 73 4 79-13 4-13-13-32-34-53-26-27-35-25-43-39-14-24 7-46 28-120 30-104 30-125 57-148 8-7 28-16 36-37 4-14 2-25 2-31-5-38 18-50 30-105 13-54 7-109 18-136 1-2 18-60 22-69z" fill="#fdc9bc"/><path d="M366 153h11l9 4-1 5c-1-1-16-6-19-9z" fill="#e6a39f"/><path d="M387 153l-5-12c-2-2-13-12-29-12-11 1-26 6-30 17-7 19 24 49 41 44 7-2 13-11 14-11a37 37 0 0 0 6-14 20 20 0 0 1-15 0c-6-3-12-10-10-13 1-3 7-4 28 1zM402 101c1-1-2-8-11-11-8-2-19-4-19-2-1 1 29 15 30 13z" fill="#332622"/><path d="M374 105c1-3 7-4 12-2 4 2 8 7 7 10s-7 3-12 1-8-6-7-9z" fill="#fff"/><ellipse cx="1537" cy="933" rx="5" ry="4" transform="rotate(-68 357 1367)" fill="#332622"/><path d="M415 89a54 54 0 0 0-62-31c-6 34-16 44-25 47-10 3-15-4-27 0-8 3-10 8-28 30l-12 14a97 97 0 0 1-16-42c-1-8-4-34 12-61 16-26 48-47 83-46 28 1 66 16 76 49 5 16 2 31-1 40z" fill="#332622"/><path d="M321 92a18 18 0 0 0-1-13c-1-1-4-8-11-9s-14 8-16 16c-1 6 1 12 3 17a45 45 0 0 0 12 15l5 2a9 9 0 0 0 7-7z" fill="#efbdb4"/><path d="M281 598c3 1 7 3 25 71 8 26 13 48 17 64a378 378 0 0 0-83 11c21-120 33-146 41-146z" fill="#efa878"/><path class="_panties" d="M283 599a386 386 0 0 1-8 71c-9 41-26 88-30 87-51-38-91-63-132-58-3-4-44-63-18-126 14-36 43-54 54-61a188 188 0 0 0 134 87z" fill="#eee"/><path d="M284 447l44 8M274 486l44 9M261 531l44 8" fill="none" stroke="#d3a5a5" stroke-miterlimit="0" stroke-width="10"/><path d="M353 246c-7-13-23-29-62-36l-30 14-17 48 21 60 74 97 54 84 174 108 29 61 46 18 28-26a185 185 0 0 0-32-59c-32-39-57-34-98-75-32-32-25-43-56-67-30-23-43-17-59-38-19-25-6-40-26-77-15-26-23-23-33-46-13-31-2-45-13-66z" fill="#f4c1b8"/></svg>
