<svg xmlns="http://www.w3.org/2000/svg" viewBox="0 0 533 1362"><path class="_skin" d="M533 740c-10 34-45 49-50 45s29-49 18-61c-3-2-20 0-23 2-8 6-21 12-23 10-6-5 31-58 30-83 0-10-2-6-33-82-13-28-27-94-27-97-2-8-20-75-29-74-7 1-7 36-7 82 0 13 1 61 3 85 5 88 19 106 19 172l-5 63c-11 129-23 150-18 214l7 78c-1 20-23 117-29 142l-9 51a97 97 0 0 0 14 34c15 22 32 28 30 35-1 3-5 4-46 6-30 1-39 1-45-6-4-6-4-13-4-17 1-9 5-13 8-25a218 218 0 0 0 1-99l-22-98c-1-19 2-31-1-104l-10-150c-8-106-9-140-12-140-5 0-8 47-17 141-8 74-8 86-9 101-4 74-6 72-2 120 5 69-24 94-26 160a263 263 0 0 0 6 63c1 2 16 29 5 42-2 4-7 7-42 7-31 0-47 0-49-6-4-11 30-23 40-56 6-18 1-33-3-51-15-66-38-133-36-167 1-15 12-70 12-81-1-120-18-141-16-251 1-122 23-161 18-265-2-36-7-82-15-83-5 0-13 25-28 76l-12 45c-5 23-4 32-13 54-20 48-47 61-39 86 3 13 11 13 21 37 9 20 14 42 10 43-3 1-13-10-19-21-2-5-17-2-18-1-14 23 18 65 10 71-5 4-28-10-40-32-5-10-6-18-8-31-1-8 5-47 5-92-1-50 19-171 25-192 11-38 26-56 29-96 1-17-1-30 6-50 1-5 10-31 37-55 49-45 111-28 113-62 1-16 1-38-5-40-3-1-5 3-8 2-8-1-14-25-7-44 4-10 7-10 13-20 14-23 1-39 11-52 11-14 83-15 94 0 9 12 10 36 10 50 0 8 8 20 9 21 10 5 5 42-4 44-2 0-3-2-4-1-5 3-8 43-7 45 1 4 98 49 124 66 26 16 36 82 35 96-1 39 14 59 28 101 20 58 18 53 23 171 0 13 9 114 6 124z" fill="#fdc9bc"/><path class="_panties" d="M141 601a1502 1502 0 0 0 257 1 1082 1082 0 0 1 16 181l-146 3-3-33-3 33-144-3a867 867 0 0 1 7-97c4-31 10-59 16-85z" fill="#eee"/><path class="_hair" d="M206 25c-17 21-13 46-11 64 4 29 18 50 28 61l34 21h22l37-23a139 139 0 0 0 18-49c4-21 9-53-12-76-19-22-49-23-54-23-8 0-42 0-62 25z" fill="#332622"/></svg>
