<svg xmlns="http://www.w3.org/2000/svg" viewBox="0 0 430 1378"><g class="_palms" fill="#ffc6ad"><path d="M370 686c4 34-2 63 2 64 5 1 18-41 21-41 5 1-13 68-3 71 5 3 17-11 23-26 14-29 6-57 2-78-3-12-47-4-45 10z"/><path d="M64 680c-4 35 2 63-2 64-5 1-18-41-21-40-5 1 14 67 3 71-5 2-16-12-23-27-13-28-6-57-2-77 2-10 47-4 45 9z"/></g><g class="_pants" fill="#050704"><path d="M323 671c18 4 18 75 20 175 1 58 4 155-20 161-5 1-77 24-88 18-13-6-21-217-21-217-5-80-16-94-4-106a500 500 0 0 1 113-31z"/><path d="M109 670c-19 3-18 75-21 175-1 58-4 155 21 161 5 1 76 24 88 18 13-7 21-218 21-218 4-79 15-93 4-105-10-10-109-32-113-31z"/></g><g class="_boots" fill="#3f2725"><path d="M221 1010c9-8 20 2 54 0 35-1 51-14 60-5 5 5-8 147-4 217 3 40 4 46 2 64-3 26-6 54-28 73-27 23-75 25-85 8-3-5 19-71 23-87 2-6 5-133-5-164-5-16-30-94-17-106z"/><path d="M107 996c-5 5-5 90 2 93 3 1 6-2 9 0 6 3 5 83-6 104-6 12-113 75-112 86 1 12 36 18 59 20 25 1 138-26 139-27 5-6 0-135 6-193 4-44 17-72 2-82-8-6-16 0-51 0-30 0-40-8-48-1z"/></g><path class="_hood" d="M124 235c-7-10 4-124 5-135 4-30 6-45 11-57a77 77 0 0 1 17-25c22-23 98-22 118-8 30 20 36 58 39 79l1 39c3 48 4 71 6 77 3 14 9 21 4 30-2 5-97 12-139 11-35 0-52 1-61-11z" fill="#837c55"/><path class="_neck" d="M192 200l-12 15m6-44c-9 10 1 22-11 38-1 2-18 168 34 165 17 0 76-137 60-156a56 56 0 0 1-13-22 54 54 0 0 1-1-9c0-5-53-35-69-16z" fill="#ffc6ad"/><g class="_shirt" fill="#837c55"><path d="M116 520a483 483 0 0 1-49 125s-47-70-46-102a291 291 0 0 1 6-42l9-37c11-38 9-76 10-96 4-71 55-149 76-145 33 8 10 227-6 297zm213 10a481 481 0 0 0 49 126l37-10c1-5 11-53 9-92a278 278 0 0 0-5-43 374 374 0 0 0-10-36c-11-39-9-77-10-97-4-70-55-148-76-144-33 7-9 226 6 296z"/><path d="M169 209c42 10 37 138 51 138 22 0 33-134 51-133a4 4 0 0 1 2 1c22 18-4 383-49 382-45-2-65-391-55-388z"/></g><path class="_vest" d="M68 262c-25 48-36 86-28 91l64 39c10 7 11 23 8 69-5 64-21 212-20 217a76 76 0 0 0 6 21c18 37 228 17 242 13l5-6c6-12-17-307-7-313 12-11 69-23 71-26 4-5-12-72-12-73-14-35-22-59-41-67-5-2-72 5-79 9-23 21-41 315-53 315-7 0-28-308-58-322a194 194 0 0 0-65-6s-18 12-33 39z" fill="#3f2725"/><g class="_bands" fill="#3f2725"><path d="M19 556c-3 2-8 9-5 60 1 23 3 43 5 56a47 47 0 0 1 24 0c11 3 14 9 18 9 9 1 23-22 45-110 0-1-78-22-87-15z"/><path d="M337 568c15 89 27 113 36 113 4 0 8-6 19-8a47 47 0 0 1 24 2l9-55c7-51 2-59 0-61-8-7-88 8-88 9z"/></g><g class="_trim" fill="#191312"><path d="M341 561a758 758 0 0 1-239 0l1-24a581 581 0 0 0 234 0 197 197 0 0 1 3 25z"/><path d="M13 570a308 308 0 0 0 48 12 302 302 0 0 0 46 5l3-27a254 254 0 0 1-45-4 250 250 0 0 1-46-13z"/><path d="M425 547a250 250 0 0 1-47 9 255 255 0 0 1-44 1l1 26a303 303 0 0 0 46-1 308 308 0 0 0 49-8z"/><path d="M372 232a2310 2310 0 0 1-251 322l-18-16a1680 1680 0 0 0 245-314z"/><path d="M419 373a340 340 0 0 1-90 33l-6-23a283 283 0 0 0 86-32z"/><path d="M28 371a331 331 0 0 0 45 21 335 335 0 0 0 43 11l7-22a285 285 0 0 1-43-12 279 279 0 0 1-42-20z"/></g><g class="_buckles" fill="none" stroke="#ccc9bc" stroke-miterlimit="0" stroke-width="4"><path d="M212 544h30v32h-30z"/><path d="M251 359l19-24 23 19-18 23z"/></g><g class="_ropes" fill="none" stroke-miterlimit="0"><path d="M247 290l-41 28m31 1l-36-36" stroke="#3f2725" stroke-width="4"/><path d="M153 43a66 66 0 0 1 25-25 92 92 0 0 1 77-4 73 73 0 0 1 36 29" stroke="#666044" stroke-width="6"/><path d="M143 138c-9 35-3 52 5 61 10 10 26 13 36 31a49 49 0 0 1 5 15" stroke="#666044" stroke-width="6"/><path d="M301 138c9 35 3 52-5 61-10 10-26 13-36 31a49 49 0 0 0-5 15" stroke="#666044" stroke-width="6"/></g><path class="_face" d="M283 113c-2 30-3 45-11 57a67 67 0 0 1-40 25l-13 2-12-1c-14-1-27-17-31-21a106 106 0 0 1-23-63s-4-37 11-62l2-3a48 48 0 0 1 16-15c3-2 12-5 37-4 14 0 28 1 39 8a51 51 0 0 1 20 22c2 4 8 17 5 55z" fill="#ffc6ad"/><path d="M214.6 108.7a32.4 32.4 0 0 1 3 13.8 45.3 45.3 0 0 1-3 15.8c-1.5 3.5-2.5 5-2 7.1a9.2 9.2 0 0 0 9.2 5.1 10.2 10.2 0 0 0 6.6-3" fill="none" stroke="#ad857b" stroke-miterlimit="0" stroke-width="2"/><path d="M178 94a29 29 0 0 1 14-3 97 97 0 0 1 10 1h3m31 2a30 30 0 0 1 13-3 97 97 0 0 1 10 1h4" fill="none" stroke="#3f2725" stroke-miterlimit="0" stroke-width="3"/><path d="M208 109l-5 4a16 16 0 0 1-10 2c-3 0-10-3-10-6s7-8 13-8a15 15 0 0 1 7 2c2 1 5 3 5 5z" fill="#fcfcfc"/><circle cx="195" cy="108" r="6" fill="#3f2725"/><path d="M261 109l-5 4a16 16 0 0 1-10 2c-3 0-10-3-10-6s7-8 13-8a15 15 0 0 1 7 2c2 1 5 3 5 5z" fill="#fcfcfc"/><circle cx="248" cy="108" r="6" fill="#3f2725"/><path d="M281 139l1-16c0-13-2-19 1-24 0-1 3-4 5-3 4 1 6 15 3 28-3 8-8 16-10 15z" fill="#e0ac9b"/><path d="M149 124c-4-13-2-27 3-28 2-1 5 2 5 3 3 5 0 11 0 24 0 10 3 16 1 16-1 1-7-7-9-15z" fill="#e0ac9b"/><path d="M206 166a149 149 0 0 0 16 1h15c0 1-7 5-16 5a27 27 0 0 1-15-6z" fill="#ad857b"/><path class="_hair" d="M287 114c-7-46-15-58-21-59s-22 6-26 6l-18-3c-12 1-16 8-26 7l-20-6c-5 0-11 9-23 47-1-4-9-35 12-61a74 74 0 0 1 116 6c18 28 7 59 6 63z" fill="#3f2725"/><path d="M222 162c-1 2-5 0-12-1-13-2-23 4-23 3l5-5c4-2 25-6 27-4 0 0 4 6 3 7z" fill="#3f2725"/><path d="M226 155c3-2 23 2 28 4l5 5c0 1-10-5-23-3-7 1-11 3-12 1s2-7 2-7z" fill="#3f2725"/><path class="_beard" d="M157 134c2 5 8 21 25 32a61 61 0 0 0 26 9l15-3 17 3a64 64 0 0 0 23-12 65 65 0 0 0 20-29c0 5-1 28-20 46-4 4-19 17-42 17-22 0-37-14-42-19a74 74 0 0 1-22-44z" fill="#3f2725"/></svg>
