<svg xmlns="http://www.w3.org/2000/svg" viewBox="0 0 535 160"><path d="M1274.41,2088a188,188,0,0,0,41.18,18,190.7,190.7,0,0,0,49.41,8q-28.3,62.51-56.62,125a79.25,79.25,0,0,0-24.7-8,80.06,80.06,0,0,0-23.68,0Q1267.2,2159.5,1274.41,2088Z" transform="translate(-1260 -2088)" fill="#3f2725"/><path d="M1780.59,2097a188,188,0,0,1-41.18,18,190.7,190.7,0,0,1-49.41,8q28.3,62.51,56.62,125a79.25,79.25,0,0,1,24.7-8,80.06,80.06,0,0,1,23.68,0Q1787.8,2168.5,1780.59,2097Z" transform="translate(-1260 -2088)" fill="#3f2725"/></svg>
