<svg xmlns="http://www.w3.org/2000/svg" viewBox="0 0 252 1386"><path d="M252 1374c-1 3-99 19-152-23-130-100 39-509 70-583l44-20c-8 61-16 121-19 128-14 31-33 39-39 72-4 19 2 21-3 42-6 26-18 35-27 55-6 11-7 18-11 78-6 83-6 99-5 118 3 52 13 65 19 72 32 35 123 57 123 61z" fill="#e5b6ae"/><path fill="#fff" d="M159 115l9-5 9 1 7 7-9 4h-8l-8-7z"/><path d="M67 29c-23 20-25 85-19 110 10 39 16 41 18 57 4 34-23 48-41 90-26 58-13 117-10 130 15 67 56 81 55 134a246 246 0 0 1-4 27c-3 15-50 69-53 92-2 9-4 31 6 53s23 24 29 45c5 16 8 109 0 192-1 14-43 127-47 166-6 49 15 102 27 132 6 16 13 30 12 51-2 13-5 64-3 68 8 17 195 8 196 2 0-3-115-53-123-61-6-7-16-20-19-72-1-19-1-35 5-118 4-60 5-67 11-78 10-20 21-30 27-55 5-21-1-23 3-42 6-34 25-42 39-72 6-14 32-239 39-263 15-52 9-103 9-107-2-13-3-19-3-32 1-27 10-29 11-53 1-22-6-31-5-43l2-11a157 157 0 0 0 3-20c0-14-19-34-39-51-33-30-40-32-46-46s-9-36 1-46c10-9 26 1 36-9 8-8 9-24 8-34-2-8-5-13-2-17 5-6 14-2 17-6 4-5-12-14-16-33-3-10 0-12 0-28 0-13-3-29-7-36-13-28-81-47-117-16z" fill="#fdc9bc"/><path d="M164 359a33 33 0 0 0 30 22c15 0 30-10 34-25" fill="none" stroke="#d3a5a5" stroke-miterlimit="0" stroke-width="5"/><path d="M207 440l-21 52" fill="none" stroke="#d3a5a5" stroke-miterlimit="0" stroke-width="4"/><path d="M179 529a95 95 0 0 1 8 67" fill="none" stroke="#d3a5a5" stroke-miterlimit="0" stroke-width="3"/><path d="M189 104c0-2-5-8-15-7-8 0-19 2-19 4 0 1 32 5 34 3z" fill="#332622"/><path d="M171 166l11-4 9 1 1 5-21-2z" fill="#e6a39f"/><path d="M190 159v-2l-8-8c-2-1-16-7-31-2-10 4-23 14-23 26 0 20 38 39 53 28 6-4 9-14 9-15a37 37 0 0 0 2-14c-6 6-15 7-21 4-3-2-8-6-7-9 1-7 21-8 26-8z" fill="#332622"/><path fill="#fff" d="M158 117l9-6h9l7 7-9 5h-8l-8-6z"/><ellipse cx="1366" cy="1159" rx="5" ry="4" transform="rotate(-87 222 1264)" fill="#332622"/><path d="M210 657l4 166-171-20c-7-8-43-54-34-118 6-47 33-77 43-87z" fill="#fff"/><path d="M147 308c-1-15-8-36-40-60H74l-37 36-6 63 24 120 12 99 110 172v68l33 36 37-11a184 184 0 0 0-4-67c-12-49-37-55-55-110-15-43-4-49-22-84-17-35-31-35-36-61-6-30 12-38 10-81-2-29-11-30-10-55 2-33 18-42 17-65z" fill="#e5b6ae"/><path d="M190 71a43 43 0 0 0-48-10c-5 5-11 11-13 21-5 18 7 33 2 37-7 5-23-14-37-11-10 3-22 20-24 88a158 158 0 0 1-29-41c-7-15-20-41-15-72 4-28 23-66 62-79 37-12 86 3 100 35 5 12 4 24 2 32z" fill="#332622"/><path d="M116 119c1-3-5-12-14-14-7-2-13 2-17 7-5 7-3 15-2 19 3 11 13 20 16 18 4-2-10-24-3-30 5-5 18 3 20 0z" fill="#e5b6ae"/></svg>
