<svg xmlns="http://www.w3.org/2000/svg" viewBox="0 0 533 1356"><path d="M533 740c-10 34-45 49-50 45s29-49 17-61c-2-2-19 0-23 2-7 6-20 12-22 10-6-5 31-58 30-83 0-10-2-6-34-82-12-28-26-94-26-97-2-8-20-75-30-74-6 1-6 36-6 82 0 13 1 61 3 85 5 88 19 106 18 172l-4 63c-11 129-23 150-18 214 3 38 8 40 7 70 0 16-2 35-21 111-18 71-23 81-17 99 10 32 39 48 41 59h-91c-5-12 4-34 9-56 12-53-10-70-21-156-6-44 1-32-3-130l-10-150c-8-106-9-140-12-140-5 0-8 47-17 141-8 74-9 86-9 101-4 74-6 72-2 120 5 69-24 94-26 160a263 263 0 0 0 6 63c1 2 16 30 5 42-4 5-86 2-87 0-3-5 33-49 36-55 6-12 3-23-3-51-15-66-38-133-36-167 1-15 12-70 12-81-1-120-18-141-16-251 1-122 23-161 18-265-2-36-7-82-15-83-5 0-13 25-28 76l-12 45c-5 23-4 32-13 54-20 48-47 61-39 86 3 12 11 13 21 37 9 20 13 42 10 43s-13-10-19-21c-3-5-17-2-18-1-14 23 18 65 10 71-5 4-28-10-40-32-5-10-6-19-8-31-1-8 5-47 5-92-1-50 19-171 25-192 11-38 26-56 29-96 1-17-1-30 6-50 1-5 10-31 37-55 49-45 111-28 113-62 1-16 1-38-5-40-3-1-5 3-8 2-8-1-14-25-7-44 4-10 7-10 13-20 14-23 1-39 11-52 11-15 83-15 94 0 9 12 10 36 10 50 0 8 7 20 9 21 10 5 5 42-4 44-2 0-3-2-4-1-5 2-8 43-7 45 1 3 98 49 124 66 25 16 36 82 35 96-1 39 14 59 28 101 20 58 18 53 23 171 0 13 9 114 6 124z" fill="#fdc9bc"/><path d="M141 601a1497 1497 0 0 0 257 1 1083 1083 0 0 1 16 181l-146 3-3-33-3 33-144-3a865 865 0 0 1 7-97c4-31 10-59 16-85z" fill="#fff"/><path d="M206 25c-17 21-13 46-11 64 4 29 18 50 28 61l34 21h22l37-23a139 139 0 0 0 18-49c4-21 9-53-12-76-19-22-49-23-54-23-8 0-42 0-62 25z" fill="#332622"/></svg>
