<svg xmlns="http://www.w3.org/2000/svg" viewBox="0 0 535.7 1409.5"><path d="M219.6 26.5c-10.1 12-14 37.5-10.7 52.8.5 2.6 2.3 10-1.5 15.5-2.5 3.5-5.2 3.3-7.8 5.7-10.6 9.8.6 42.7 7 42.5 1.7 0 2.7-2.4 3.8-2 1.8.8-1 7.7.2 16.8.8 5.9 2.3 5.5 3.8 12.7.8 4.4 2.2 11.5 0 17.5-2.8 7.4-10.1 10.8-14.5 13-23.2 11.7-20.6 17.7-40.5 27.5-29 14.2-35.5 2-57 14a83 83 0 0 0-39.5 54.8c-3.8 20.6 4.7 30-3.5 50.5-5.6 13.7-10.4 11.6-17.8 25.7-12.8 24.5-1.2 36-11.2 70.8-6 20.6-10.6 18.1-15 38.2-3 13.8-2 20.2-5.5 48.3-2 15.1-2.8 18.1-4 27.7-2.7 20.7-1.2 27.2-.5 77.5.6 45-3 65.7-3.5 67.5-2.5 8.3-2.2 16-1 24 1.8 12.9 3 21.4 8 31 11.1 21.8 34.8 36.6 40 32.5 1.4-1.1 1.2-3.6 1-6.5-.7-7.7-5.3-11.4-13-22a75 75 0 0 1-10-16c-3-6.9-5.3-12.3-3.5-18.5 2.7-9.3 23-17.6 26-16.5 9.7 3.7 3.6 26.8 14.4 32.2 4 2 9.6 1 12-1.7 2.1-2.4 2-6.2-4-25.5-3.1-10-4.7-15-6-18-9.2-21.5-19.7-24.3-21.5-36.5-1.5-10.7 5-19.3 11-28 26.3-37.7 37.2-58.1 42-73 7.5-23 9-50.3 9.3-57.5.5-11 1.2-24.2 1.7-26.5 2.6-10.8 9-17.3 13-22.5 12.2-16 12.1-35 13.5-34.7.7.2.2 18.7 2 24.3 3.6 11 11.5 15.6 15 34.4 3.1 16.9-2.1 19.6-1.5 48 .4 18.7 2.9 26.4 4 38 3.4 35.4-11.6 43.8-19 87.5-6.4 37.9 3.4 40.3-2 96.5-3.5 36.4-7.2 31.5-9 57.5-2.2 31.6 3.1 42.4 19.5 142.5 4.5 27.6 5.9 37.4 6 51.5.3 30.4-8.5 42.4-10.5 74-1.2 18.7.4 31.7 3.5 55.3 10 77 34.6 116 20.7 157.4a54.3 54.3 0 0 1-13.6 21.3 84.2 84.2 0 0 1-39 19c-6 1.2-11.3 1.6-19 5a39 39 0 0 0-15 10c-.6.6-11.8 13.5-8 20 2.7 4.7 20.5 2.4 55.9-2.4 5-.7 10.6-1.5 18.1-3.1 13.9-3 16.8-5.2 26-7.5 26.1-6.5 38.8 2 48-8a27 27 0 0 0 6-11 36 36 0 0 0 0-15 103.6 103.6 0 0 0-3.5-15c-3.3-12-2.9-25.1-2.5-51.5.1-7 1-6.2 4.3-25.8 3.5-20 3.1-23.7 8.2-56.7 1.8-11.5 9.8-38.3 11.8-46.8 1.9-7.8 2.6-16.1 1.4-30.4-3.5-45.2-17.3-53-13.2-79.3 2.6-16.7 8.4-15 15-41 5.4-21.2 5.3-37.3 5.6-48.2.6-21.6 1.3-19 2.3-29.1 2.9-27.8 9.2-47.5 11.5-72.6v-.8l.3-5.2c.3-23.3-.2-34.6-.2-34.6 0-23.4 2.5-50 4-50 1.3 0 2.4 18.6 2 35-.3 9-1 16.7-1.6 22.3 0 .1-.6 43.5 1 56.8.9 7.4 2.4 14.5 2.4 14.5 2.7 12.5 6.1 18.4 9 41 1.8 13.6 3.5 44.4 5 55.6.2 1.4 5.3 31 6.2 35.3a270 270 0 0 1 5 31.3c.8 19-3.6 40.8-5.7 67.5a106 106 0 0 0 .3 22.2l7.2 33.9c6.5 24.9 11.2 54 17 105.6 4.5 40.5 7 60.7 4.2 69-12 35.9-46.1 50.5-40 74 .3 1.1 2.9 10.5 11 15 11.5 6.4 26.3-1 32-4 3.9-2 12.7-6.4 19-16a8509 8509 0 0 0 38-59c3.3-5.6-1-10.3-3-22-2.3-13.4 5-65.1 5-76.3 0-3.5.2-7.3.5-12.2 2.4-38.1 6.5-61.5 6.5-107 0 0 3.1-59.4.3-81.5-1.7-12.7-3.2-17.7-3.8-30.5-.7-15.2 0-30.6 8-66.5 10.3-46.6 12.5-46.3 15-65.5 1.4-10.4 2.6-25.3 1-58.5-1.4-27.8-3.3-36.6-10.5-98-7.3-62.3-5.3-55.2-8-71 0 0-6.8-37.7-10.6-73.4-.2-1.7 3.6-28.3 3.1-39.3-.4-8.7-4.2-29.6-4.3-35.8 0-2.1 19.3-70.6 19.6-70.7s2.5 8.7 3 10.9c2 8 19.3 26.4 23.7 47.3.8 3.7 1 9 1.3 19.7.4 11 .9 33 2.7 41.3 7.8 35.5 33.1 50.5 53 102 2 5.2 3.6 9.8 3.7 15.8.3 15.1-8.6 21.6-22.2 48.2-10.8 21-11.4 29.1-8.3 34.8.3.6 3.2 5.6 7 5.6 5.8 0 10.4-11.5 12.8-17.4 4.4-11 3.2-15 7.5-18 5-3.6 12.6-2 17 .3 8.2 4.2 10.3 13 11 16a31.3 31.3 0 0 1-1.7 19c-6.1 14.8-19.2 14.7-24.6 29.7-.5 1.2-4 11-.4 14 4.9 4 19.6-6.1 26.7-12 5-4.1 17.2-14.7 22.5-33 3-10.2 2.5-18.5 2-27-.7-13-3.1-14.1-5.2-29.3-1.7-12.9-.2-14-1.3-40.2-.6-15-1.1-14.9-1.7-28-.9-21.4.4-25.5 0-42.7-.2-11.1-.7-7.8-5.5-58.6-2.2-22.3-3-29-5.8-40.2-3.7-14.8-6.7-15-11.5-29.5-11-33 1-42.1-10-66.5-8.8-19.7-18-16.8-23-34.5-5.8-20.6 5.5-28.4 2-49.5a72 72 0 0 0-31.5-46.5c-25.8-16.4-51-5.1-70-24.5-2.7-2.7-6.4-7.2-13.5-12.5-7.9-5.8-11.1-6-24-14-12.6-7.8-15.4-11.2-17-15-.6-1.4-3.1-7.7-.5-13a13 13 0 0 1 2.4-3.2c7.6-8.7.3-26 5.1-28.3 1.5-.7 2.3.8 4.3.5 9.1-1.6 14.3-38.5 4.4-43.7-2-1-3.1 0-5.2-1.3-5-3-4.4-11.8-4.2-19.3.4-21 .5-39.4-10.2-50.8a30.7 30.7 0 0 0-3-3c-15.3-12.4-35-11-48-9.7-23 2.2-34.9 3.3-42.9 12.8z" fill="#fdc9bc"/><path d="M270.1 760.3c-1-20.6-2-28.2-2.9-28.2s-1.8 7.5-2.9 27.8a259 259 0 0 1-134.7-.3c1-6 2.4-14.6 3.4-25a315.2 315.2 0 0 0 .9-37.6c-.5-19.7-1.9-22.8-1.2-37.1A187.8 187.8 0 0 1 135 638c5.6-33 15.6-46 18.6-65.6h228.8c3.6 28.2 8 52.6 8 52.6 2.8 15.8.8 8.7 8 71 3.8 32.2 6.2 50 7.7 63.5a227.5 227.5 0 0 1-136 .7z" fill="#fefefe"/><path d="M257.7 103.7c-1.5 3 3.1 5.3 4.7 14.1.6 3.2 2 11.5-2.3 17-2.6 3.3-5.6 3.6-6.2 6.9-.6 3 1.3 6.4 2.7 6.5.8 0 1-1.4 2.5-1.9s3.5.5 4.6 1.7.8 2 1.9 2.5a3.5 3.5 0 0 0 3.1 0c1.4-.7 1-1.9 2.5-3.2 1-.8 2.8-1.6 4.2-1.1s1.5 2 2.8 2.1a2.7 2.7 0 0 0 2-.6c1.5-1.3 1.4-3.5 1.4-4.2a9.4 9.4 0 0 0-2.2-5.2c-1.8-2.4-3-2.4-4.4-4-1.6-1.8-1.9-4-2.3-8.3-.4-4.8 4-20.6 3.5-22-1.7-4.5-16-5-18.5-.3z" fill="#efbcb6"/><path d="M256.9 151.5c5.7.8 11.3 5 10.8 7.2-.2 1-1.6 1.2-6.3 2.3-12.2 2.8-13.4 3.2-14.2 4.4-2.3 3.5.4 11.4 5.3 13.8 4.4 2 6.9-2 15.2-1.7 8.6.2 11.1 4.7 15.5 2.6 4.3-1.9 7-8.2 5.3-12.2-1.8-4.5-9-6.1-14.5-7.4-4-1-6-.8-6.3-1.8-.6-2 5.7-6.8 12.3-7.3 7.6-.6 13.4 4.7 16.5 7.5 3 2.7 13.1 11.9 11.4 22-2.5 14-25.8 18.5-30.4 19.4a53.5 53.5 0 0 1-27.1-1.7c-6.6-2.2-23.2-7.8-24.5-19.4-1.2-10.1 10.2-18.5 14.6-21.8 3.5-2.6 9.4-6.9 16.4-5.9z" fill="#332622"/><path d="M251.4 169.6c-.1-1.6 5-4.3 10.1-4 2.2.1 2.9.7 6 .8l5.8-.6c3.5-.7 11 2 11 4-.2 1.5-5.2 2.5-8 3a41.5 41.5 0 0 1-9.6.5 42.9 42.9 0 0 1-10.6-1.5c-2.9-.8-4.6-1.3-4.7-2.2z" fill="#e6a39f"/><path d="M279.7 101.5c-.7-1.2.1-3 .8-4 1.2-1.7 4-3.4 13.6-2.7 8 .5 19.2 2.5 19 4.2 0 1.1-5.2.4-19.2 2.4-7.9 1-13 2.3-14.2.1z" fill="#332622"/><path d="M282 114.5c-.3-1 .8-2.2 2.1-3.7a14.3 14.3 0 0 1 15.5-4.8c1.1.3 7.7 1.7 7.9 4.7.1 2-2.5 3.5-4.5 4.7a16.1 16.1 0 0 1-10 2.6c-1.8-.2-1-.5-5.9-1.6-3.3-.8-4.7-1-5-1.9z" fill="#d3d3d3"/><circle cx="293.7" cy="111.8" r="5" fill="#458b9b"/><circle cx="293.7" cy="111.8" r="2.1" fill="#4c4c4c"/><path d="M258.3 102c.7-1.2 0-3-.7-4-1.2-1.8-4-3.4-13.6-2.7-8.1.5-19.2 2.5-19 4.2 0 1.1 5.1.4 19.2 2.4 7.9 1 12.9 2.2 14.1.1z" fill="#332622"/><path d="M256 115c.4-1-.7-2.2-2-3.7a15.3 15.3 0 0 0-4.8-3.9 15.6 15.6 0 0 0-10.7-.9c-1.1.3-7.7 1.7-8 4.7 0 1.9 2.5 3.5 4.5 4.7a16.1 16.1 0 0 0 10 2.6c1.8-.2 1.2-.5 6-1.7 3.3-.8 4.7-.9 5-1.8z" fill="#d3d3d3"/><circle cx="244.4" cy="112.2" r="5" fill="#458b9b"/><circle cx="244.4" cy="112.2" r="2.1" fill="#4c4c4c"/><path d="M210 109.7c-2.2.1-5-16.3-6.3-23.4-2.2-12.4-3.3-18.6-2.8-25.8.3-6.1 1-17 7.7-27.5 0 0 10.5-16.5 37.8-25.2 3.2-1.1 6.3-1.6 11.6-4 5-2.1 6.9-3.6 10.4-3.8s6 1.3 9.8 3.2c12.6 6.4 12.3 4.1 21.7 9.5a48.3 48.3 0 0 1 14.5 10c6.4 8.1 2.7 13.1 10 24.3 3.8 6 6 6.3 7.9 11.5 2.2 6.2 1.3 11.7.4 16.5-3.7 20.6-6.6 36.5-8.8 36.2-1-.2-1-3.5-3-21.7-1.7-14.2-2.3-17-3.9-20.2-1.4-3-5.1-10.7-13.5-14.5-7.5-3.3-15-1.6-19.9-.5-8.5 1.8-8.4 4.4-14.5 5-8.8.7-10.5-4.5-21-5.8a36.4 36.4 0 0 0-21.6 4c-2.9 1.6-12.2 6.7-14.9 16.3-2 7.2 1.6 10 .8 24.2-.2 2.4-.7 11.6-2.4 11.7z" fill="#332622"/></svg>