<svg xmlns="http://www.w3.org/2000/svg" viewBox="0 0 581 315"><path d="M486 309c-27-12-52-43-45-63 2-7 10-13 10-13 10-7 44-4 46-9 1-4-18-17-45-27a191 191 0 0 0-54-10l7-44 64 30c30 12 62 43 57 59-6 19-60 8-65 25-3 12 20 31 43 39 39 13 76-8 77-7 0 2-49 40-95 20zM98 30c-5-8 4-26 18-29 12-3 26 5 27 14 0 8-10 14-13 15-11 6-28 8-32 0z" fill="#c2ad8f"/><path d="M0 94c0-13 16-22 47-41 28-16 50-26 78-25 39 2 49 28 86 25 21-2 24-10 44-16 48-13 126 13 147 73 12 36 2 81-23 104-8 7-86 46-88 45s7-12 7-13-19 7-19 6c-1 0 10-11 9-12 0-2-19 7-20 5s13-12 13-14l-46-13c-6 1-5 13-12 23-10 13-29 17-30 15-2-2 10-11 9-12s-5 1-13 4c-8 4-9 3-9 2-1-1 9-11 9-12l-22 6c-1-2 6-9 15-12 6-2 22-23 22-24-1-4-29-14-30-14-7 1-5 15-16 31-7 12-30 19-31 17-1-3 9-9 9-10-1-2-21 9-23 6-1-2 9-11 8-12s-19 8-19 7c-2-1 4-9 11-13l18-7c3-1 13-42 14-44 0-11-14-19-20-23-16-10-76-10-79-10-9-2-47-19-46-42z" fill="#75706c"/><path d="M336 99c-37 4-62 39-56 73 7 34 44 57 80 46M255 128c12 16 12 27 10 34-3 11-13 14-23 30a76 76 0 0 0-9 24M134 124c2 0 16-9 20-15 6-8 8-18 8-24" fill="none" stroke="#585553" stroke-miterlimit="0" stroke-width="3"/><circle cx="87" cy="71" r="9" fill="#3d3b3b"/><circle cx="83" cy="70" r="2" fill="#fff"/><path d="M18 119c2 0 27-8 32-12 3-2 11-1 12 1" fill="none" stroke="#585553" stroke-miterlimit="0" stroke-width="4"/><path d="M137 18c6-4 14-5 21-3a29 29 0 0 1 20 19c6 22-22 50-36 46-15-5-23-48-5-62z" fill="#bca68b"/><path d="M144 66c-4-1-5-32 0-37 4-3 24 4 25 9 1 7-22 29-25 28z" fill="#aa9680"/><path d="M3 85l11 5-7 21c-2-1-8-7-7-17a21 21 0 0 1 3-9z" fill="#c68d6d"/></svg>
