<svg xmlns="http://www.w3.org/2000/svg" viewBox="0 0 84.3 270.4"><path class="svg-hood" d="M24.4 46.1c-1.4-2 .8-24.4 1-26.6.7-5.8 1-8.7 2-11a15.1 15.1 0 0 1 3.3-5C35.2-1 50-.8 54 1.9c5.9 4 7 11.4 7.6 15.5l.2 7.6c.5 9.4.8 14 1.1 15.2.7 2.7 1.8 4.2.9 5.8-.5 1-19 2.5-27.3 2.3-6.8-.1-10.3.2-12-2.2z" fill="#837c55"/><path d="M73.1 134.4c.8 6.7-.4 12.3.5 12.5 1 .2 3.4-8 4.1-8 .9.3-2.6 13.3-.6 14 1 .5 3.3-2.3 4.6-5.2 2.6-5.7 1.1-11.2.3-15.3-.5-2.3-.8-4.2-1-5.8h-9.8a33.6 33.6 0 0 1 2 7.8zM12.8 133.3c-.8 6.7.4 12.3-.5 12.5-1 .2-3.4-8-4-7.9-1 .2 2.6 13.2.6 14-1 .4-3.3-2.4-4.6-5.3-2.6-5.6-1.2-11.2-.4-15.2a57.7 57.7 0 0 0 1-5.9h9.8a33.1 33.1 0 0 0-1.9 7.8zM2.4 108.3l2.8-.6" fill="#ffc6ad"/><path class="svg-arms" d="M22.7 102a94.8 94.8 0 0 1-9.5 24.6l-7.4-1.8a80.5 80.5 0 0 1-1.7-18.2 57.2 57.2 0 0 1 1.1-8.3C6 94.6 6.8 92 7 91.1c2.2-7.5 1.8-15 2-19C9.8 58.3 19.8 43 24 43.8c6.5 1.4 1.8 44.4-1.3 58.2zM64.6 104a94.4 94.4 0 0 0 9.5 24.6l7.3-1.8c.3-1.1 2.2-10.5 1.8-18.2a54.5 54.5 0 0 0-1.1-8.3 73.6 73.6 0 0 0-1.8-7.2c-2.2-7.5-1.8-15-2-19-.8-13.8-10.8-29.1-15-28.3-6.5 1.4-1.8 44.4 1.3 58.2z" fill="#837c55"/><path class="svg-brace-l" d="M82.2 110.4c1.6 1 1.7 21-.4 21.8 0 0-7.4 1.5-8 1.4-2-.3-1.9-4.4-4-9.8-2.7-6.7-4-11.5-3.3-11.2 2 1.3 14.6-2.9 15.7-2.2z" fill="#3f2725"/><path fill="none" d="M39.2 56l6.9 4.9"/><path class="svg-pants-l" d="M63.3 131.6c3.6.7 3.5 14.8 4 34.4.2 11.3.8 30.4-4 31.6-1 .2-15 4.7-17.3 3.5-2.5-1.3-1.8-5.4-2.7-19l-1.4-23.7c-.9-15.7-3.1-18.3-.8-20.7 2-2 21.4-6.3 22.2-6.1z" fill="#050704"/><path class="svg-pants-r" d="M21.3 131.4c-3.6.6-3.5 14.8-4 34.4-.2 11.3-.8 30.4 4 31.6 1 .2 15 4.7 17.3 3.5 2.6-1.4 1.9-5.4 2.8-19l1.4-23.8c.8-15.6 3-18.2.7-20.6-1.9-2-21.3-6.3-22.2-6.1z" fill="#050704"/><path d="M43.4 198.2c1.8-1.6 3.9.4 10.5 0 7-.2 10-2.8 11.8-1.1 1 1-.3 14.8-1 17.9-.9 4.2-.5 11 .3 24.7.5 7.9.8 9 .4 12.5-.6 5.2-1.3 10.7-5.5 14.4-5.4 4.5-14.7 4.9-16.7 1.6-.7-1-.2-3 .8-6.6 1.5-5.3 2.8-7.4 3.7-10.5.4-1.3 1-3.7.8-11.7-.1-9.3.1-14.4-1.8-20.5-1-3.1-1.4-3-2.4-6.7-1.6-5.5-3.4-11.7-.9-14z" fill="#3f2725"/><path d="M21 195.4c-1 1-.5 2-.6 8.5 0 5.4-.4 9.2 1 9.7.6.2 1.1-.4 1.7 0 1.2.6.6 4 .4 5.1-1.7 10 .6 11.1-1.5 15.3-1.2 2.4-3.8 4.2-9 7.8-9 6-13.2 7-13 9 .3 2.4 7.1 3.7 11.5 4 5 .2 6-1 15.7-2.5 8.3-1.2 9.2-.6 11-2a5.8 5.8 0 0 0 .6-.8c1-1.2 0-26.4 1.2-37.9.9-8.5 3.3-14 .5-16-1.7-1.3-3.3 0-10 0-5.9-.1-7.9-1.7-9.5-.2z" fill="#3f2725"/><path d="M37.7 39.2l-2.3 3M36.5 33.5c-1.7 2 .1 4.4-2.1 7.4-.3.4-3.7 33 6.5 32.5 3.5-.1 6-3 11-8.7 2.8-3.3 4-18.3.9-21.9a11 11 0 0 1-2.5-4.4 10.7 10.7 0 0 1-.2-1.7c0-1-10.5-7-13.6-3.2z" fill="#ffc6ad"/><path class="svg-shirt" d="M33.1 40.9C41.3 43 40.4 68 43.1 68c1 0 2.4-5.2 5-15.5 1.6-7 2.1-9.6 4.2-10.7 3.7-2 10.4 1 10.7 4 .3 2.4-10.8 66.2-19 71.2-.6.4-7.2-4-8.2-21.3 0 0-11.7-48.5-11.8-50.3-.2-3.6 6.2-5.3 9.1-4.5z" fill="#837c55"/><path fill="none" stroke="#3f2725" stroke-miterlimit="0" d="M48.4 56.8l-8 5.5M46.5 62.5l-7-7"/><path class="svg-jacket" d="M20 43.7c-2.3.7-3.8 2.4-6.6 7.6-5 9.4-7.2 16.9-5.5 18l12.5 7.5c2 1.4 2.2 4.6 1.5 13.7-1 12.5-4 41.5-3.9 42.4a14.9 14.9 0 0 0 1.3 4.2c3.5 7.2 44.6 3.4 47.3 2.5l1-1.1c1.3-2.3-3.2-60.2-1.4-61.5 2.5-2 13.7-4.5 14.1-5 .7-1-2.5-14.2-2.5-14.3-2.6-7-4.2-11.6-7.9-13.2-1-.4-10.6-.3-11.2-.1a35.7 35.7 0 0 0-4.4 1.8c-4.5 4.1-4 14.6-4 14.6s-4 47.3-6.3 47.2c-1.5 0-5.7-21.7-6.1-45-.2-6.1.6-15.4-5.4-18.1a38 38 0 0 0-12.6-1.2z" fill="#3f2725"/><path d="M55.5 22.2c-.4 5.9-.6 8.8-2.3 11.1a13 13 0 0 1-7.8 5l-2.4.3-2.5-.2c-2.6-.2-5.3-3.4-6-4.1A20.8 20.8 0 0 1 30.1 22s-.8-7.3 2-12.2l.4-.6a9.4 9.4 0 0 1 3.1-3c.7-.3 2.5-1 7.4-.7 2.7 0 5.4.2 7.6 1.5a9.9 9.9 0 0 1 3.8 4.3c.4.8 1.6 3.4 1.1 10.9z" fill="#ffc6ad"/><path d="M43.7 34.3l.2 4.5a10.2 10.2 0 0 0 2.3-.3 11.7 11.7 0 0 0 4.7-2.4 11.9 11.9 0 0 0 2.2-2.2 9.8 9.8 0 0 0 1.7-3.1 14.3 14.3 0 0 0 .4-1.7c.2-1.2.4-2.3.2-2.4s-.7 2.1-2.3 4.2c-.5.6-3 3.6-6.9 3.7a7.6 7.6 0 0 1-2.5-.3z" fill="#3f2725"/><path d="M43.7 34.3l.2 4.5a10.7 10.7 0 0 1-3.5-.3 12.4 12.4 0 0 1-4.7-2.4 11.4 11.4 0 0 1-2.3-2.2 9.7 9.7 0 0 1-1.8-3.1 14.3 14.3 0 0 1-.4-1.7c-.2-1.2-.4-2.3-.2-2.4s.7 2.1 2.4 4.2a10.5 10.5 0 0 0 7 3.7 9.5 9.5 0 0 0 3.3-.3zM56.3 22.3c-1.3-9-2.9-11.4-4.1-11.5C51 10.7 47.9 12 47 12l-1.4-.3a5.5 5.5 0 0 0-2.1-.4c-2.4.2-3 1.6-5 1.4h-.1a23 23 0 0 1-3.8-1.2c-1 0-2.3 1.8-4.5 9.3-.3-2-.9-7.4 2.2-12a10.2 10.2 0 0 1 3.1-3c2.6-1.7 5.3-1.6 8-1.4s5.6.3 7.9 1.6c4.2 2.6 6 9.2 4.9 16.3z" fill="#3f2725"/><path d="M35 18.4a5.8 5.8 0 0 1 2.6-.6 19 19 0 0 1 2 .3h.6M46.3 18.4a5.8 5.8 0 0 1 2.5-.6 19 19 0 0 1 2 .3h.7" fill="none" stroke="#3f2725" stroke-miterlimit="0" stroke-width=".8"/><path d="M42.1 21.3a6.4 6.4 0 0 1 .6 2.7 8.9 8.9 0 0 1-.6 3.1c-.3.7-.5 1-.4 1.4a1.8 1.8 0 0 0 1.8 1 2 2 0 0 0 1.3-.6" fill="none" stroke="#ad857b" stroke-miterlimit="0" stroke-width=".3" opacity=".4"/><path d="M40.8 21.3c-.1 0-.3-.3-.9-.5a2.4 2.4 0 0 0-1.7-.2 2.2 2.2 0 0 0-1.3 1.1c-1.2 0-1.5-.3-1.5-.5-.3-.6 1-1.9 2.4-2.1a3 3 0 0 1 2.5.7c.5.6.6 1.4.5 1.5zM46.2 21.3l.8-.5a2.4 2.4 0 0 1 1.7-.2 2.2 2.2 0 0 1 1.3 1.1c1.2 0 1.5-.3 1.6-.5.2-.6-1-1.9-2.4-2.1a3 3 0 0 0-2.5.7c-.5.6-.7 1.4-.5 1.5z" fill="#a07b6e" opacity=".5"/><path d="M40.8 21.2c0 .3-.5.6-.9.8a3.2 3.2 0 0 1-2 .4c-.7 0-2-.6-2-1.2s1.4-1.5 2.5-1.5a3 3 0 0 1 1.4.4c.4.2 1 .6 1 1z" fill="#fcfcfc"/><circle cx="38.3" cy="21.1" r="1.2" fill="#3f2725"/><circle cx="38.4" cy="21.2" r=".5" fill="#070404"/><circle cx="38.7" cy="21.1" r=".2" fill="#fcfcfc" opacity=".6"/><path d="M46 21.2c0 .3.6.6 1 .8a3.2 3.2 0 0 0 2 .4c.7 0 2-.6 2-1.2s-1.4-1.5-2.5-1.5a3 3 0 0 0-1.4.4c-.4.2-1 .6-1 1z" fill="#fcfcfc"/><circle cx="48.6" cy="21.1" r="1.2" fill="#3f2725"/><circle cx="48.5" cy="21.2" r=".5" fill="#070404"/><circle cx="48.9" cy="21.2" r=".1" fill="#fcfcfc" opacity=".6"/><path d="M57 24.2c-.4 1.6-1.5 2.8-1.8 2.6s.1-1.1.2-3.2c0-2.6-.5-3.7.1-4.7.2-.4.6-.7 1-.6.6.2.7 2 .7 3a7.9 7.9 0 0 1-.2 3zM29.2 24.2c.4 1.6 1.5 2.8 1.8 2.6s-.1-1.1-.2-3.2c0-2.6.5-3.7-.1-4.7-.2-.4-.6-.7-1-.6-.6.2-.7 2-.7 3a7.9 7.9 0 0 0 .2 3z" fill="#e0ac9b"/><path d="M66.8 110A148.6 148.6 0 0 1 20 110l.2-4.7a113.9 113.9 0 0 0 46 0c.3 1.6.5 3.2.6 4.9z" fill="#191312"/><path d="M73 45.4a453 453 0 0 1-49.2 63.3l-3.6-3.1a329.5 329.5 0 0 0 48-61.7zM82.2 73.2a66.6 66.6 0 0 1-17.6 6.5l-1.2-4.5a55.6 55.6 0 0 0 16.8-6.3zM84.3 113.8a51.8 51.8 0 0 1-8.7 2.3 52.5 52.5 0 0 1-8.4.8l-.6-5.2a44 44 0 0 0 8.1-.7 43.5 43.5 0 0 0 8.3-2.4zM5.5 72.8a65 65 0 0 0 8.8 4 65.7 65.7 0 0 0 8.5 2.3l1.3-4.4a56.2 56.2 0 0 1-8.4-2.4 54.8 54.8 0 0 1-8.2-3.8z" fill="#191312"/><path d="M40.4 33.1l2.8.3c2 0 3.4-.4 3.4-.2s-.9.6-1.7.8a5.6 5.6 0 0 1-1.9.1 4.8 4.8 0 0 1-2.6-1z" fill="#ad857b"/><path d="M40.4 33a20 20 0 0 0 3.2.2h3a6 6 0 0 0-1.8-.3 12 12 0 0 0-1.8-.1 8.7 8.7 0 0 0-2.6.3z" fill="#ad857b"/><path d="M43.7 32l1.8.3" fill="#a07b6e"/><path d="M44.2 30.5c-.4.4-.7 1.1-.4 1.4s1 0 2.3-.2c2.6-.4 4.5.8 4.6.5s-.9-.7-1-.8a8.4 8.4 0 0 0-2.7-.9c-1.5-.3-2.3-.4-2.8 0zM43 30.5c.5.4.7 1.2.5 1.5s-1 0-2.4-.3c-2.5-.3-4.4.8-4.5.6s.8-.8 1-.9a8.4 8.4 0 0 1 2.7-.8c1.5-.3 2.2-.5 2.7 0z" fill="#3f2725"/><path fill="none" stroke="#ccc9bc" stroke-miterlimit="0" d="M54.1 68.4l4.6 3.6-3.6 4.6-4.6-3.6z" stroke-width="1.00424"/><path fill="none" stroke="#ccc9bc" stroke-miterlimit="0" d="M40.6 106.5h5.8v6.2h-5.8z"/><path class="svg-brace-r" d="M3.7 109c-1.7 1.2-.4 3.7-.4 11.8 0 5.3-.7 10.8 1.1 11.4 0 0 7.4 1.5 8 1.4 2-.3 1.8-4.4 4-9.8 2.4-6 6-9.5 4.4-11.8-.1-.2-2.9-.7-8-1.6-5.8-1.1-7.4-2.7-9.1-1.4z" fill="#3f2725"/><path d="M2.5 111.8a60.4 60.4 0 0 0 9.4 2.4 59.3 59.3 0 0 0 9 .9l.6-5.2a50 50 0 0 1-8.7-.8 49.1 49.1 0 0 1-9-2.5z" fill="#191312"/><path class="svg-hood-lines" d="M30 10a13 13 0 0 1 5-5 18 18 0 0 1 15-.7 14.4 14.4 0 0 1 7 5.7M28 27c-1.8 7-.6 10.3 1 12 2 2 5.1 2.5 7 6a9.6 9.6 0 0 1 1 3M59.1 27c1.8 7 .6 10.3-1 12-1.9 2-5.1 2.5-7 6a9.6 9.6 0 0 0-1 3" fill="none" stroke="#666044" stroke-miterlimit="0" stroke-width="2"/></svg>
