<svg xmlns="http://www.w3.org/2000/svg" viewBox="0 0 546.08 522.02"><title>shirt green</title><path d="M1699,1432l-111,43a1046.36,1046.36,0,0,0-91,440l67-4q14.93-66.36,33-136,15.52-59.61,32-116a563.78,563.78,0,0,1-16,272,513.43,513.43,0,0,0,304,0,730.48,730.48,0,0,1-18-271l78,254,66,9a1140.21,1140.21,0,0,0-101-447l-107-44-70,140Z" transform="translate(-1496.92 -1432)" fill="#ffffff"/><line x1="223.08" y1="51" x2="294.08" y2="89" fill="none" stroke="#000000" stroke-miterlimit="0" stroke-width="8"/><line x1="247.08" y1="98" x2="315.08" y2="50" fill="none" stroke="#000000" stroke-miterlimit="0" stroke-width="8"/></svg>
