<svg xmlns="http://www.w3.org/2000/svg" viewBox="0 0 535 173"><path class="_front" d="M14 8a188 188 0 0 0 42 18 191 191 0 0 0 49 8L48 159a79 79 0 0 0-24-8 80 80 0 0 0-24 0L14 8zM521 17a188 188 0 0 1-42 18 191 191 0 0 1-49 8l57 125a79 79 0 0 1 24-8 80 80 0 0 1 24 0L521 17z" fill="#3f2725"/><path class="_back" d="M14 8c2-8 24-10 41-7 27 5 53 24 50 33s-33 9-56 1C32 29 12 16 14 8zM521 16c-2-8-24-10-41-7-27 5-53 24-50 33s33 9 56 1c17-6 37-19 35-27z" fill="#301d1c"/><path class="_front2" d="M0 151a39 39 0 0 0 20 12 40 40 0 0 0 28-4 45 45 0 0 0-48-8zM535 160a39 39 0 0 1-20 12 40 40 0 0 1-28-4 45 45 0 0 1 48-8z" fill="#3f2725"/></svg>
