<svg xmlns="http://www.w3.org/2000/svg" viewBox="0 0 548 179"><g class="_front" fill="#3f2725"><path d="M6 8a227 227 0 0 0 48 19 238 238 0 0 0 56 8L71 166l-35 1-36 2z"/><path d="M542 7a227 227 0 0 1-48 19 238 238 0 0 1-56 8l39 131 35 1 36 2z"/></g><g class="_back" fill="#301d1c"><path d="M6 8c2-7 28-8 46-6 31 5 61 24 58 33s-38 10-65 1C26 30 3 17 6 8z"/><path d="M542 7c-2-7-28-8-46-6-31 5-61 24-58 33s38 10 65 1c19-6 42-19 39-28z"/></g><g class="_back2" fill="#3f2725"><path d="M0 169a65 65 0 0 0 71-3 71 71 0 0 0-71 3z"/><path d="M548 168a65 65 0 0 1-71-3 71 71 0 0 1 71 3z"/></g></svg>
