<svg xmlns="http://www.w3.org/2000/svg" viewBox="0 0 358 355"><path class="_front" d="M184 7A294 294 0 0 1 76 7a431 431 0 0 0 15 82h12l-6 88-96 73a12 12 0 0 0 0 7c3 11 25 15 54 12l113-28 5-37c4-36 4-62 5-77 0-27 2-66 6-120zM234 26a231 231 0 0 0 117 1l-6 60-10-1-21 122 44 85a77 77 0 0 1-3 36 76 76 0 0 1-11 21 47 47 0 0 1-18 5 49 49 0 0 1-30-8 212 212 0 0 1-44-131L239 82l-8-4z" fill="#3f2725"/><path class="_back" d="M76 7a209 209 0 0 1 108 0A165 165 0 0 1 76 7zM234 26a181 181 0 0 1 117 1 156 156 0 0 1-117-1z" fill="#301d1c"/></svg>
