<svg xmlns="http://www.w3.org/2000/svg" viewBox="0 0 353 356"><g class="_front" fill="#3f2725"><path d="M229 26a231 231 0 0 0 117 1l-6 60-10-1-21 122 44 85a77 77 0 0 1-3 36 76 76 0 0 1-11 21 47 47 0 0 1-18 5 49 49 0 0 1-30-8 212 212 0 0 1-44-131L234 82l-8-4z"/><path d="M67 13l2 78h17l7 103a125 125 0 0 0-55 23c-11 8-43 34-37 47 4 11 35 17 162-11l15-163 11-1 8-76a354 354 0 0 1-130 0z"/></g><g fill="#281818" class="_back"><path d="M67 13c0-6 30-11 52-13 36-2 78 6 78 13 0 8-39 15-72 14-27 0-58-7-58-14z"/><path d="M229 26c0-6 27-11 46-13 33-2 71 6 71 13 0 8-35 15-65 14-24 0-52-7-52-14z"/></g></svg>
