<svg xmlns="http://www.w3.org/2000/svg" viewBox="0 0 198 163"><path class="_back" d="M98 135l-77 3 6 21a750 750 0 0 0 143 1l6-24-78-1z" fill="#a06300"/><path class="_front" d="M25 153L0 50l16-9c0 3-3 16 5 29 1 1 12 17 32 15a35 35 0 0 0 30-22c5-12 1-23 0-26a40 40 0 0 0-18-20L98 0l35 17c-4 1-15 8-20 22-1 4-4 13-1 23a34 34 0 0 0 15 18 37 37 0 0 0 25 5c3-1 19-4 27-19a35 35 0 0 0 2-24l17 7-27 105a867 867 0 0 0-146-1z" fill="#ffd35f"/><path class="_trim" d="M100 130c27 0 53 1 77 3l-5 21a881 881 0 0 0-147-1l-6-22 81-1z" fill="#e79800"/><ellipse class="_stone" cx="98" cy="58" rx="8" ry="13" fill="#ba301e"/></svg>
