<svg xmlns="http://www.w3.org/2000/svg" viewBox="0 0 331 551"><path d="M103 75c-29 46-27 94-28 112-4 53-20 137-75 275 5 9 40 69 114 85 78 17 136-28 144-34 1-79 5-142 8-185 10-153 20-217-22-267-23-28-52-41-74-48-20 11-47 30-67 62z" fill="#d87b00"/><path d="M44 318a337 337 0 0 0 224 46" fill="none" stroke="#5e0000" stroke-miterlimit="10" stroke-width="26"/><path d="M163 5a250 250 0 0 1 84 61c25 28 30 143 22 177-1-13-15-102-17-109-14-52-80-92-108-108z" fill="#5e0000" stroke="#210000" stroke-miterlimit="10" stroke-width="8"/><path d="M331 175a217 217 0 0 0-86 75c-30-25-45-52-53-67-11-23-31-64-13-102 2-5 15-32 42-39 35-9 63 25 70 33 21 26 23 55 23 69l17 31z" fill="#c96e00"/></svg>
