<svg xmlns="http://www.w3.org/2000/svg" viewBox="0 0 476 525"><path d="M172 3L61 46 0 148l93 113 13-21a832 832 0 0 1-20 262 513 513 0 0 0 304 0 757 757 0 0 1-20-261l13 21 93-113-61-102L308 3l-70 140z" fill="#d87b00"/><path d="M241 162v78l-1 2-32-52-10-86a157 157 0 0 1-39-39 172 172 0 0 1-21-41v-2c4-3 27-16 32-17a76 76 0 0 0 17 27 66 66 0 0 0 36 19l18 111zM241 162v78l1 2 32-52 10-86a157 157 0 0 0 39-39 172 172 0 0 0 21-41v-2c-4-3-27-16-32-17a76 76 0 0 1-17 27 66 66 0 0 1-36 19l-18 111z" fill="#5e0000" stroke="#210000" stroke-miterlimit="0" stroke-width="8"/><path fill="none" stroke="#5e0000" stroke-miterlimit="0" stroke-width="26" d="M108 359h259"/></svg>
