<svg xmlns="http://www.w3.org/2000/svg" viewBox="0 0 248 546"><path d="M69 6C55 24 35 53 27 94c-4 20-4 38 5 107 4 29 9 68 17 114-7 31-45 171-49 182 10 9 65 55 143 48 51-5 86-31 100-42-3-43-3-82-2-116l1-23c1-30-1-46-2-74-2-45-3-73-1-107 1-9-9-64-20-79-4-5-120-82-150-98z" fill="#d87b00"/><path d="M42 319a403 403 0 0 0 203 0" fill="none" stroke="#5e0000" stroke-miterlimit="0" stroke-width="26"/><path d="M73 5a337 337 0 0 1 165 122l-3 72c-3-19-12-56-42-91a182 182 0 0 0-42-36L55 26z" fill="#5e0000" stroke="#210000" stroke-miterlimit="0" stroke-width="8"/><path d="M145 156v32a140 140 0 0 0-98 0l-9-67 6-62 45-36 51 11 23 65z" fill="#c96e00"/></svg>
