<svg xmlns="http://www.w3.org/2000/svg" viewBox="0 0 311 703"><path d="M255 90c29 3 41 112 45 147 7 61 24 106-6 200-14 42-25 104-14 192-4 3-67 6-71 3-6-29-9-54-11-72-9-69-13-103-4-135 8-30 18-36 18-62 0-32-14-53-21-68-35-78 32-208 64-205z" fill="#495a89"/><path d="M260 91c-20 123-37 217-48 268-3 16-7 45-26 76-16 25-25 28-43 51-19 25-62 172-71 217-7 1-60-7-69-12-11-148 11-206 35-230 6-6 28-26 39-60 7-23 6-43 5-52-10-114-34-184-18-244 7-27 25-66 80-105 21 15 100 77 116 91z" fill="#4d5d93"/></svg>
