<svg xmlns="http://www.w3.org/2000/svg" viewBox="0 0 303 713"><path class="_front" d="M20 15a696 696 0 0 0 263 5 1341 1341 0 0 1 19 179c4 94-3 166-17 299-4 48-12 116-24 198a85 85 0 0 0-72 0c-14-141-26-287-34-436l-4-83-47 519a63 63 0 0 0-37-10 62 62 0 0 0-29 9A2025 2025 0 0 1 20 15z" fill="#4d5d93"/><path class="_back" d="M20 15a500 500 0 0 1 263 5 291 291 0 0 1-263-5z" fill="#44537f"/><g class="_back2" fill="#4d5d93"><path d="M38 695c1-7 19-12 33-12 15 0 33 6 33 13 1 7-16 15-31 15-17 1-35-9-35-16z"/><path d="M189 697c1-7 21-12 37-12s36 6 36 13c1 7-18 15-34 15-19 1-39-9-39-16z"/></g></svg>
