<svg xmlns="http://www.w3.org/2000/svg" viewBox="0 0 150 258"><path class="_front" d="M6 43A199 199 0 0 0 77 7a129 129 0 0 0 67 36 286 286 0 0 1-69 206A338 338 0 0 1 6 43z" fill="#858d9e" stroke="#585d6a" stroke-miterlimit="0" stroke-width="11"/><path class="_stripes" d="M10 47a165 165 0 0 1 55 90m-49-28a151 151 0 0 1 32 38 131 131 0 0 1 17 43m73-144a165 165 0 0 0-55 90m50-29a151 151 0 0 0-33 38 131 131 0 0 0-17 43" fill="#858d9e" stroke="#585d6a" stroke-miterlimit="0" stroke-width="4"/><path class="_stripe" fill="#858d9e" stroke="#585d6a" stroke-miterlimit="0" stroke-width="9" d="M75 5v239"/></svg>
