<svg xmlns="http://www.w3.org/2000/svg" viewBox="0 0 550 538"><path d="M250 235l77 25 185 162a75 75 0 0 1-44 54L283 351a249 249 0 0 1-33-116z" fill="#666044"/><path d="M103 62c-29 46-27 94-28 113-4 52-20 137-75 274 5 9 40 69 114 85 78 17 136-28 144-34 1-79 5-142 8-185 10-153 20-216-22-267-23-28-52-41-74-48-20 11-47 30-67 62z" fill="#837c55"/><path d="M182 53c7-15 22-30 41-33 33-5 59 31 65 40 19 27 20 55 20 69l57 118 185 162a75 75 0 0 1-44 54L321 338c-59-77-96-142-120-187-16-31-33-67-19-98z" fill="#726b4c"/></svg>
