<svg xmlns="http://www.w3.org/2000/svg" viewBox="0 0 546 522"><path class="_back" d="M196 6a1204 1204 0 0 0 155 1l-72 398z" fill="#bbbbbb"/><path class="_front" d="M202 0L91 43A1046 1046 0 0 0 0 483l67-4 33-136 32-116a565 565 0 0 1 8 147 564 564 0 0 1-24 125 513 513 0 0 0 304 0 730 730 0 0 1-18-271l78 254 66 9a1139 1139 0 0 0-16-169 1146 1146 0 0 0-85-278L338 0l-70 140z" fill="#dddddd"/><path class="_string" fill="none" stroke="#000000" stroke-miterlimit="0" stroke-width="8" d="M224 52l73 39M245 98l69-47"/></svg>
