<svg xmlns="http://www.w3.org/2000/svg" viewBox="0 0 476 522.02"><title>vest brown</title><path d="M1710,1679l-111,43-61,102,93,113,13-21a831.58,831.58,0,0,1-20,262,513.43,513.43,0,0,0,304,0,756.88,756.88,0,0,1-20-261l13,21,93-113-61-102-107-44q-29,197-58,394Z" transform="translate(-1538 -1679)" fill="#3f2725"/><path d="M1914.41,1701l24.59,14.42q-64,88.39-137.43,180.86-66.58,83.54-132,158.59a688.92,688.92,0,0,0,235.62-7.87v24.9a799.9,799.9,0,0,1-265.24,3.94q2-16.4,4-32.77,65.57-78.78,131.94-162.52Q1847.92,1789.74,1914.41,1701Z" transform="translate(-1538 -1679)" fill="#191312"/><rect x="228.45" y="374.73" width="35.39" height="37.27" fill="none" stroke="#ccc9bc" stroke-miterlimit="0" stroke-width="5"/></svg>
