<svg xmlns="http://www.w3.org/2000/svg" viewBox="0 0 476 522"><path class="_back" d="M164 3q41 2 83 2l75 1-73 397L164 3z" fill="#6d4432"/><path class="_front" d="M172 0L61 43 0 145l93 113 13-21a833 833 0 0 1 0 137 831 831 0 0 1-20 125 513 513 0 0 0 304 0 757 757 0 0 1-20-261l13 21 93-113-61-102L308 0l-58 394z" fill="#89573e"/><path class="_belt" d="M376 22l25 14q-64 89-137 181-67 84-132 159a689 689 0 0 0 103 6 689 689 0 0 0 132-14v25a799 799 0 0 1-138 13 800 800 0 0 1-127-9l4-33q66-79 132-162 72-91 138-180z" fill="#191312"/><path class="_buckle" fill="none" stroke="#ccc9bc" stroke-miterlimit="0" stroke-width="10" d="M228 375h35v37h-35z"/></svg>
