<svg viewBox="0 0 476 522" xmlns="http://www.w3.org/2000/svg"><path class="_back" d="M164 3l83 2 75 1-85 398L164 3z" fill="#6d4432"/><path class="_front" d="M172 0L61 43 0 145l93 113 13-21a833 833 0 0 1-20 262c99 31 205 31 304 0-22-85-29-173-20-261l13 21 93-113-61-102L308 0l-69 394L172 0z" fill="#89573e"/><path class="_belt" d="M376 22l25 14q-64 89-137 181-67 84-132 159a689 689 0 0 0 103 6 689 689 0 0 0 132-14v25a799 799 0 0 1-138 13 800 800 0 0 1-127-9l4-33q66-79 132-162 72-91 138-180z" fill="#191312"/><path class="_buckle" fill="none" stroke="#ccc9bc" stroke-miterlimit="0" stroke-width="10" d="M222 375h35v37h-35v-37z"/></svg>
