<svg xmlns="http://www.w3.org/2000/svg" viewBox="0 0 246 540"><path d="M69 0C55 18 35 48 27 88c-4 20-4 38 5 107 4 29 9 68 17 114-7 32-45 171-49 182 10 9 65 56 143 48 51-5 86-30 100-42-3-43-3-82-2-116l1-23c1-15-23-247-87-306-16-15-44-37-86-52z" fill="#89573e"/><path d="M229 94l13 24q-26 39-57 80A1924 1924 0 0 1 53 357a715 715 0 0 0 193 0l-3 24a802 802 0 0 1-219-3l4-33q66-79 132-162l69-89z" fill="#191312"/><path d="M244 381l-22 6v-37l22 6z" fill="none" stroke="#ccc9bc" stroke-miterlimit="10" stroke-width="5"/><path d="M31 184l3-115c14-31 41-50 70-49s56 23 68 56l10 106a237 237 0 0 0-151 2z" fill="#6d4432"/></svg>
