<svg xmlns="http://www.w3.org/2000/svg" viewBox="0 0 334 500"><path d="M113 60C74 119 48 357 0 449a781 781 0 0 0 258 51c3-66 4-122 3-165-3-205-27-268-67-312a222 222 0 0 0-24-23 240 240 0 0 0-57 60z" fill="#89573e"/><path d="M268 78a592 592 0 0 1-148 285" fill="none" stroke="#191312" stroke-miterlimit="10" stroke-width="20"/><path d="M37 334a392 392 0 0 0 118 34 398 398 0 0 0 106-1" fill="none" stroke="#191312" stroke-miterlimit="10" stroke-width="21"/><path d="M234 209l-57-100c-7-31 5-61 27-73 30-17 78-1 95 42l35 65a220 220 0 0 0-100 66z" fill="#6d4432"/><path d="M264 381l-22 6v-37l22 6z" fill="none" stroke="#ccc9bc" stroke-miterlimit="10" stroke-width="5"/></svg>
